<svg id="Camada_1" data-name="Camada 1" xmlns="http://www.w3.org/2000/svg" viewBox="0 0 1920 1080"><defs><style>.cls-1{fill:#03bb85;}</style></defs><title>Prancheta 1</title><path class="cls-1" d="M240.43,359h22V516h-22Zm10.8,0h88V380h-88Zm0,70h76.11v20.95H251.23Z"/><path class="cls-1" d="M381.21,511.79a39,39,0,0,1-16.79-17.11q-5.78-11.28-5.77-27.26V454.79q0-16.64,5.56-28.4a39.76,39.76,0,0,1,16.14-17.92q10.57-6.15,25.48-6.15,14,0,24,7T445,429.63q5.24,13.28,5.24,31.85v7.34H374.63v-17.7h54.62q-1-13.71-7.07-21.33t-16.35-7.61q-12.52,0-19.38,8.21t-6.86,23.21v14.25q0,13.92,7.34,21.38t20.84,7.45a34.76,34.76,0,0,0,13.28-2.7,38.37,38.37,0,0,0,11.77-7.56l14.46,14.47a61.12,61.12,0,0,1-18.67,12.36,53.32,53.32,0,0,1-20.84,4.37Q392.23,517.62,381.21,511.79Z"/><path class="cls-1" d="M499.75,511.79A38.92,38.92,0,0,1,483,494.68q-5.79-11.28-5.78-27.26V454.79q0-16.64,5.56-28.4a39.76,39.76,0,0,1,16.14-17.92q10.58-6.15,25.48-6.15,14,0,24,7t15.16,20.29q5.24,13.28,5.24,31.85v7.34H493.17v-17.7H547.8q-1-13.71-7.08-21.33t-16.35-7.61q-12.53,0-19.38,8.21t-6.86,23.21v14.25q0,13.92,7.35,21.38t20.83,7.45a34.76,34.76,0,0,0,13.28-2.7,38.37,38.37,0,0,0,11.77-7.56l14.46,14.47a61.12,61.12,0,0,1-18.67,12.36,53.32,53.32,0,0,1-20.84,4.37Q510.77,517.62,499.75,511.79Z"/><path class="cls-1" d="M621,487.07a9.88,9.88,0,0,0,1.78,6.31,6.07,6.07,0,0,0,5,2.22h10.37v20.94h-13q-12.53,0-19.38-7.77T599,486.85V359h22Z"/><path class="cls-1" d="M831.84,431.47v27.42q0,17.49-6.8,30.82a49.25,49.25,0,0,1-19.27,20.62q-12.48,7.29-28.88,7.29-16.64,0-29.21-6.86a48.06,48.06,0,0,1-19.48-19.37q-6.91-12.52-6.91-29.05V416q0-17.49,6.8-30.77a49.29,49.29,0,0,1,19.27-20.57q12.46-7.28,28.88-7.28a54.22,54.22,0,0,1,24.88,5.77,52.69,52.69,0,0,1,19.06,16.36,60.9,60.9,0,0,1,10.36,24.51H806.68a33.72,33.72,0,0,0-6.58-13.55,31.4,31.4,0,0,0-10.91-8.64,29.87,29.87,0,0,0-13-3,31.26,31.26,0,0,0-17.06,4.64,30.64,30.64,0,0,0-11.33,13,44.69,44.69,0,0,0-4,19.49v46.31A36.9,36.9,0,0,0,748,480.1a29.11,29.11,0,0,0,11.61,11.82,34.78,34.78,0,0,0,17.33,4.22,32.63,32.63,0,0,0,17.05-4.38,28.81,28.81,0,0,0,11.34-12.68q4-8.31,4-19.76v-6.8H777.43v-21Z"/><path class="cls-1" d="M1120.79,512.6a33.69,33.69,0,0,1-13.22-15.6q-4.54-10.26-4.54-24.62V447.66q0-14.46,4.43-24.72a33.5,33.5,0,0,1,12.9-15.6q8.48-5.34,20.35-5.35a33.5,33.5,0,0,1,18.19,5.19,38.21,38.21,0,0,1,13.34,14.57L1170,444.64a26.51,26.51,0,0,0-2.59-12.2,17.71,17.71,0,0,0-7.5-7.72,24.94,24.94,0,0,0-11.93-2.65q-10.92,0-16.9,6.81t-6,19.11v24.39q0,12.21,6,18.84t16.9,6.64a24.16,24.16,0,0,0,11.93-2.75,18.23,18.23,0,0,0,7.5-7.94,27.43,27.43,0,0,0,2.59-12.41l1.51,23.64a31.8,31.8,0,0,1-11,13.93q-7.61,5.61-18.73,5.61Q1129.49,517.94,1120.79,512.6ZM1170,359h22V516h-22Z"/><path class="cls-1" d="M1309,516h-22V359h22Z"/><path class="cls-1" d="M1345.73,403.94h22V516h-22Zm68,44.15q0-11.86-6.15-18.35t-17.27-6.48q-10.8,0-16.68,5.72t-5.89,16.09l-2.26-21.59A40,40,0,0,1,1379,407.82a33,33,0,0,1,18.52-5.5q18.24,0,28.23,11.93t10,33.74v68h-22Z"/><path class="cls-1" d="M1488.29,511.9a38.73,38.73,0,0,1-16.57-16.63q-5.73-10.9-5.72-26.34V450.47q0-15.23,5.72-26A38.45,38.45,0,0,1,1488.29,408q10.85-5.67,26.18-5.67a62.42,62.42,0,0,1,16.46,2.1,49.3,49.3,0,0,1,13.88,6.1,37.91,37.91,0,0,1,10.25,9.72l-15.87,14.25a32.87,32.87,0,0,0-11.12-8.31,31.43,31.43,0,0,0-13.28-2.92q-12.74,0-19.75,7.13t-7,20.08v18.46q0,13.27,7,20.51t19.81,7.24a30,30,0,0,0,13.39-3.14,32.32,32.32,0,0,0,11-8.85L1555.06,500a39.17,39.17,0,0,1-10.36,9.56,49,49,0,0,1-13.87,6,63.82,63.82,0,0,1-16.36,2Q1499.14,517.62,1488.29,511.9Z"/><path class="cls-1" d="M879.14,509.2C891.52,501.59,907.52,497,925,497a95.89,95.89,0,0,1,21.63,2.44,42.49,42.49,0,0,0,2.4-4.11q5.44-10.86,5.45-26.18V450.58q0-15.22-5.45-26.08A37.54,37.54,0,0,0,933.21,408q-10.37-5.67-24.94-5.67T883.33,408a37.52,37.52,0,0,0-15.81,16.51q-5.46,10.86-5.45,26.08v18.24q0,15.44,5.45,26.4A38.17,38.17,0,0,0,879.14,509.2Zm5-58.62q0-13.06,6.32-20.19t17.86-7.13q11.55,0,17.87,7.13t6.32,20.19v18.57q0,13.05-6.32,20.29t-17.87,7.24q-11.55,0-17.86-7.24t-6.32-20.29Z"/><path class="cls-1" d="M990.57,499.64A95.78,95.78,0,0,1,1013,497c17.24,0,33,4.46,45.35,11.88a38.19,38.19,0,0,0,11.16-13.55q5.46-10.86,5.45-26.18V450.58q0-15.22-5.45-26.08A37.47,37.47,0,0,0,1053.7,408q-10.37-5.67-24.94-5.67T1003.82,408A37.54,37.54,0,0,0,988,424.5q-5.44,10.86-5.45,26.08v18.24q0,15.44,5.45,26.4A41.51,41.51,0,0,0,990.57,499.64Zm14-49.06q0-13.06,6.32-20.19t17.87-7.13q11.55,0,17.87,7.13t6.31,20.19v18.57q0,13.05-6.31,20.29t-17.87,7.24q-11.57,0-17.87-7.24t-6.32-20.29Z"/><path class="cls-1" d="M917,509c-4.14.8-8.11,1.42-12,2.15a102.51,102.51,0,0,0-11.31,2.64,36.72,36.72,0,0,0-10.06,4.61,23.37,23.37,0,0,0-4.19,3.67A32,32,0,0,0,876,527a15.6,15.6,0,0,1,1-6.35,17.73,17.73,0,0,1,3.64-5.6A26.07,26.07,0,0,1,892,508.37a40.52,40.52,0,0,1,12.64-1.65A36.93,36.93,0,0,1,917,509Z"/><path class="cls-1" d="M1005,509a37.68,37.68,0,0,1,12.2-3.67,41.3,41.3,0,0,1,12.93.24,31.75,31.75,0,0,1,6.37,1.87,23.37,23.37,0,0,1,5.83,3.39,19.5,19.5,0,0,1,4.49,5A16.34,16.34,0,0,1,1049,522a36.16,36.16,0,0,0-4.3-4.35,26.9,26.9,0,0,0-4.81-3.09,31.73,31.73,0,0,0-5.24-2.07c-.89-.3-1.82-.53-2.74-.75l-1.4-.33-1.42-.27a103.05,103.05,0,0,0-11.73-1.37Z"/><path class="cls-1" d="M904.5,532.5c4.74,3.27,9.47,6.29,14.26,9.11a153.35,153.35,0,0,0,14.55,7.64c9.81,4.49,20,7.63,30.2,8.13a32.53,32.53,0,0,0,3.82.09h1.91c.63,0,1.26-.12,1.89-.16a58.27,58.27,0,0,0,7.55-1,69,69,0,0,0,14.66-5c1.16-.62,2.35-1.21,3.54-1.81l.89-.46.86-.53,1.72-1,1.74-1,.88-.52.84-.58,3.38-2.34a39.81,39.81,0,0,0,3.33-2.47c1.11-.84,2.21-1.7,3.35-2.54s2.15-1.81,3.26-2.71,2.21-1.81,3.37-2.69a69.59,69.59,0,0,1-22.69,26.44,17.06,17.06,0,0,1-1.9,1.22l-2,1.16-2,1.14c-.67.36-1.38.65-2.07,1-1.4.61-2.77,1.33-4.23,1.82l-4.39,1.45a59.9,59.9,0,0,1-9.12,1.74c-.77.09-1.54.18-2.31.24l-2.32,0a37.79,37.79,0,0,1-4.64,0,66.09,66.09,0,0,1-9.13-1.19c-1.49-.36-3-.7-4.45-1.09s-2.89-.9-4.33-1.38a77.32,77.32,0,0,1-16-8,85.74,85.74,0,0,1-13.63-11A70.75,70.75,0,0,1,904.5,532.5Z"/></svg>