<svg xmlns="http://www.w3.org/2000/svg" viewBox="0 0 212.9 166.47"><defs><style>.cls-1{fill:#03bb85;}</style></defs><title>Ativo 6@1x</title><g id="Camada_2" data-name="Camada 2"><g id="Camada_1-2" data-name="Camada 1"><path class="cls-1" d="M17.08,106.88c12.37-7.6,28.37-12.2,45.85-12.2a96,96,0,0,1,21.64,2.44A44.59,44.59,0,0,0,87,93q5.46-10.86,5.45-26.18V48.26Q92.41,33,87,22.19A37.49,37.49,0,0,0,71.15,5.67Q60.78,0,46.21,0T21.27,5.67A37.57,37.57,0,0,0,5.45,22.19Q0,33,0,48.26V66.5Q0,81.95,5.45,92.9A38.19,38.19,0,0,0,17.08,106.88ZM22,48.26q0-13.07,6.32-20.19t17.87-7.13q11.55,0,17.86,7.13t6.32,20.19V66.83q0,13.07-6.32,20.29T46.21,94.36q-11.57,0-17.87-7.24T22,66.83Z"/><path class="cls-1" d="M128.5,97.32a95.78,95.78,0,0,1,22.43-2.64c17.25,0,33,4.46,45.35,11.88A38.22,38.22,0,0,0,207.45,93q5.45-10.86,5.45-26.18V48.26q0-15.23-5.45-26.07A37.57,37.57,0,0,0,191.63,5.67Q181.27,0,166.69,0T141.75,5.67a37.49,37.49,0,0,0-15.81,16.52Q120.48,33,120.48,48.26V66.5q0,15.45,5.46,26.4A41.45,41.45,0,0,0,128.5,97.32Zm14-49.06q0-13.07,6.31-20.19t17.87-7.13q11.55,0,17.87,7.13t6.31,20.19V66.83q0,13.07-6.31,20.29t-17.87,7.24q-11.55,0-17.87-7.24t-6.31-20.29Z"/><path class="cls-1" d="M54.93,106.68c-4.13.8-8.1,1.43-12,2.15a104.84,104.84,0,0,0-11.31,2.64,36.59,36.59,0,0,0-10.06,4.62,23.32,23.32,0,0,0-4.19,3.67,33.16,33.16,0,0,0-3.44,4.92A15.6,15.6,0,0,1,15,118.33a18.2,18.2,0,0,1,3.64-5.6A26.14,26.14,0,0,1,30,106.05a40.71,40.71,0,0,1,12.63-1.65A36.93,36.93,0,0,1,54.93,106.68Z"/><path class="cls-1" d="M142.93,106.68A37.66,37.66,0,0,1,155.14,103a41.55,41.55,0,0,1,12.92.24,31.56,31.56,0,0,1,6.37,1.87,23.74,23.74,0,0,1,5.84,3.39,20,20,0,0,1,4.49,5,16.55,16.55,0,0,1,2.17,6.15,36.16,36.16,0,0,0-4.3-4.35,27.18,27.18,0,0,0-4.8-3.09,32.08,32.08,0,0,0-5.24-2.07c-.9-.29-1.83-.53-2.75-.75l-1.4-.33-1.42-.27a107.5,107.5,0,0,0-11.73-1.37Z"/><path class="cls-1" d="M42.43,130.18c4.74,3.27,9.47,6.29,14.26,9.11a153.35,153.35,0,0,0,14.55,7.64c9.81,4.49,20,7.63,30.2,8.13a32.53,32.53,0,0,0,3.82.09h1.91c.63,0,1.26-.12,1.89-.17a58.66,58.66,0,0,0,7.56-1,68.36,68.36,0,0,0,14.65-5.05c1.16-.62,2.35-1.21,3.54-1.81l.9-.45.85-.53,1.73-1.05,1.74-1,.87-.52.84-.58,3.38-2.34a40,40,0,0,0,3.34-2.47c1.1-.84,2.2-1.7,3.34-2.54s2.16-1.81,3.26-2.71,2.21-1.81,3.37-2.69a69.58,69.58,0,0,1-22.68,26.44,20,20,0,0,1-1.91,1.23l-2,1.16-2,1.13c-.67.36-1.38.65-2.07,1-1.4.61-2.77,1.33-4.22,1.82l-4.4,1.46a59.75,59.75,0,0,1-9.11,1.73c-.77.09-1.55.18-2.32.24l-2.32.06a42,42,0,0,1-4.63-.05,69.44,69.44,0,0,1-9.14-1.19c-1.48-.37-3-.71-4.44-1.1s-2.9-.89-4.33-1.38a76.83,76.83,0,0,1-16-8,86.77,86.77,0,0,1-13.64-11A71.12,71.12,0,0,1,42.43,130.18Z"/></g></g></svg>